# Vertices
v -0.5 -0.5 -0.5
v 0.5 -0.5 -0.5
v -0.5 0.5 -0.5
v 0.5 0.5 -0.5
v -0.5 -0.5 0.5
v 0.5 -0.5 0.5
v -0.5 0.5 0.5
v 0.5 0.5 0.5

# Texture coordinates
vt 0 0
vt 0 1
vt 1 0
vt 1 1

# Normals
vn 1 0 0
vn -1 0 0
vn 0 1 0
vn 0 -1 0
vn 0 0 1
vn 0 0 -1

# Indices
## Front
f 1/2/6 3/1/6 4/3/6
f 1/2/6 4/3/6 2/4/6

## Left
f 5/2/2 7/1/2 3/3/2
f 5/2/2 3/3/2 1/4/2

## Right
f 2/2/1 4/1/1 8/3/1
f 2/2/1 8/3/1 6/4/1

## Back
f 6/2/5 8/1/5 7/3/5
f 6/2/5 7/3/5 5/4/5

## Top
f 3/2/3 7/1/3 8/3/3
f 3/2/3 8/3/3 4/4/3

## Bottom
f 5/2/4 1/1/4 2/3/4
f 5/2/4 2/3/4 6/4/4
