# Blender v2.78 (sub 0) OBJ File: 'character.blend'
# www.blender.org
o Cube_Cube.001
v 0.375000 -0.148633 0.187500
v 0.375000 0.562500 0.187500
v 0.375000 -0.148633 -0.187500
v 0.375000 0.562500 -0.187500
v 0.375000 0.267408 -0.187500
v 0.375000 0.267408 0.187500
v 0.375000 0.527910 -0.143543
v 0.375000 0.527910 0.143543
v 0.375000 0.301998 -0.143543
v 0.375000 0.301998 0.143543
v 0.542166 0.527910 -0.143543
v 0.542166 0.527910 0.143543
v 0.542166 0.301998 -0.143543
v 0.542166 0.301998 0.143543
v 0.375000 -0.228843 0.143543
v 0.375000 -0.228843 -0.143543
v 0.542166 -0.228843 0.143543
v 0.542166 -0.228843 -0.143543
v 0.348736 -0.148633 0.161236
v 0.348736 -0.148633 -0.161236
v 0.026264 -0.148633 0.161236
v 0.026264 -0.148633 -0.161236
v 0.348736 -0.812898 0.161236
v 0.348736 -0.812898 -0.161236
v 0.026264 -0.812898 0.161236
v 0.026264 -0.812898 -0.161236
v -0.375000 -0.148633 0.187500
v -0.375000 0.562500 0.187500
v -0.375000 -0.148633 -0.187500
v -0.375000 0.562500 -0.187500
v 0.000000 -0.148633 -0.187500
v 0.000000 0.562500 -0.187500
v 0.000000 -0.148633 0.187500
v 0.000000 0.562500 0.187500
v -0.375000 0.267408 -0.187500
v -0.375000 0.267408 0.187500
v -0.375000 0.527910 -0.143543
v -0.375000 0.527910 0.143543
v -0.375000 0.301998 -0.143543
v -0.375000 0.301998 0.143543
v -0.542166 0.527910 -0.143543
v -0.542166 0.527910 0.143543
v -0.542166 0.301998 -0.143543
v -0.542166 0.301998 0.143543
v -0.375000 -0.228843 0.143543
v -0.375000 -0.228843 -0.143543
v -0.542166 -0.228843 0.143543
v -0.542166 -0.228843 -0.143543
v -0.348736 -0.148633 0.161236
v -0.348736 -0.148633 -0.161236
v -0.026264 -0.148633 0.161236
v -0.026264 -0.148633 -0.161236
v -0.348736 -0.812898 0.161236
v -0.348736 -0.812898 -0.161236
v -0.026264 -0.812898 0.161236
v -0.026264 -0.812898 -0.161236
v 0.000000 0.562500 -0.107550
v 0.116120 0.562500 -0.107550
v 0.116120 0.562500 0.107550
v 0.000000 0.562500 0.107550
v -0.116120 0.562500 -0.107550
v -0.116120 0.562500 0.107550
v 0.000000 0.584736 -0.107550
v 0.116120 0.584736 -0.107550
v 0.116120 0.584736 0.107550
v 0.000000 0.584736 0.107550
v -0.116120 0.584736 -0.107550
v -0.116120 0.584736 0.107550
v 0.000000 0.584736 -0.195163
v 0.210715 0.584736 -0.195163
v 0.210715 0.584736 0.195163
v 0.000000 0.584736 0.195163
v -0.210715 0.584736 -0.195163
v -0.210715 0.584736 0.195163
v 0.000000 0.956576 -0.195163
v 0.210715 0.956576 -0.195163
v 0.210715 0.956576 0.195163
v 0.000000 0.956576 0.195163
v -0.210715 0.956576 -0.195163
v -0.210715 0.956576 0.195163
vt 0.2494 0.1412
vt 0.3529 0.0000
vt 0.4988 0.1412
vt 0.5261 0.4390
vt 0.3946 0.2824
vt 0.5261 0.2824
vt 0.1315 0.5647
vt 0.2538 0.5548
vt 0.2631 0.5647
vt 0.1315 0.4235
vt 0.1035 0.4672
vt 0.1035 0.4235
vt 0.1459 0.0000
vt 0.2494 0.1412
vt 0.0000 0.1412
vt 0.5261 0.8173
vt 0.5847 0.9254
vt 0.5261 0.9254
vt 0.3946 0.4390
vt 0.4100 0.5371
vt 0.3946 0.5501
vt 0.5107 0.5371
vt 0.5261 0.5501
vt 0.4100 0.4520
vt 0.5107 0.4520
vt 0.6268 0.3674
vt 0.7275 0.2824
vt 0.7275 0.3674
vt 0.6268 0.5673
vt 0.8644 0.2824
vt 0.9230 0.3674
vt 0.8644 0.3674
vt 0.9414 0.6523
vt 0.8827 0.5673
vt 0.9414 0.5673
vt 0.5847 0.8173
vt 0.6434 0.9254
vt 0.5847 0.9254
vt 0.3637 0.8002
vt 0.2631 1.0000
vt 0.2631 0.8002
vt 0.8644 0.5673
vt 0.8827 0.8521
vt 0.8827 0.6523
vt 0.6119 0.0000
vt 0.4988 0.2501
vt 0.4988 0.0000
vt 0.2631 0.4235
vt 0.1407 0.4334
vt 0.1315 0.4235
vt 0.1407 0.5548
vt 0.2538 0.4334
vt 0.7251 0.1587
vt 0.8382 0.2801
vt 0.7251 0.2801
vt 0.2262 0.5647
vt 0.1131 0.8148
vt 0.1131 0.5647
vt 0.2631 0.8002
vt 0.3762 0.5501
vt 0.3762 0.8002
vt 0.6392 0.8173
vt 0.7523 0.5673
vt 0.7523 0.8173
vt 0.4988 0.2824
vt 0.3529 0.2824
vt 0.2631 0.5501
vt 0.3946 0.3934
vt 0.3946 0.5501
vt 0.2538 0.2922
vt 0.1315 0.2824
vt 0.2631 0.2824
vt 0.1035 0.3798
vt 0.1315 0.2824
vt 0.2494 0.2824
vt 0.1459 0.2824
vt 0.8382 0.2667
vt 0.8968 0.1587
vt 0.8968 0.2667
vt 0.2785 0.2954
vt 0.2631 0.3934
vt 0.2631 0.2824
vt 0.3792 0.2954
vt 0.3946 0.2824
vt 0.2785 0.3804
vt 0.3792 0.3804
vt 0.5261 0.2824
vt 0.6268 0.3674
vt 0.5261 0.3674
vt 0.6268 0.5673
vt 0.9414 0.6523
vt 1.0000 0.5673
vt 1.0000 0.6523
vt 0.9817 0.2824
vt 0.9230 0.3674
vt 0.9230 0.2824
vt 0.6434 0.9254
vt 0.7020 0.8173
vt 0.7020 0.9254
vt 0.3762 0.8002
vt 0.4769 1.0000
vt 0.3762 1.0000
vt 1.0000 0.8521
vt 0.9817 0.5673
vt 0.9817 0.3674
vt 0.5261 0.5673
vt 0.6392 0.8173
vt 0.5261 0.8173
vt 0.1407 0.4136
vt 0.1407 0.2922
vt 0.2538 0.4136
vt 0.8406 0.4410
vt 0.7275 0.5624
vt 0.7275 0.4410
vt 0.1131 0.8148
vt 0.0000 0.5647
vt 0.1131 0.5647
vt 0.3762 0.5501
vt 0.4893 0.8002
vt 0.3762 0.8002
vt 0.7251 0.2501
vt 0.6119 0.0000
vt 0.7251 0.0000
vt 0.4893 0.5501
vt 0.4971 0.5938
vt 0.4893 0.5938
vt 0.4971 0.5938
vt 0.5049 0.6375
vt 0.4971 0.6375
vt 0.0000 0.4235
vt 0.0280 0.4672
vt 0.0000 0.5647
vt 0.0280 0.3798
vt 0.0280 0.4235
vt 0.1315 0.5647
vt 0.0000 0.2824
vt 0.8312 0.0356
vt 0.7251 0.0000
vt 0.8620 0.0000
vt 0.7558 0.1230
vt 0.8620 0.1587
vt 0.7251 0.1587
vt 0.4971 0.5501
vt 0.5049 0.5938
vt 0.4971 0.6375
vt 0.4893 0.6375
vt 0.5261 0.6311
vt 0.5183 0.5501
vt 0.5261 0.5501
vt 0.5049 0.5501
vt 0.5127 0.6311
vt 0.5049 0.6311
vt 0.8827 0.7259
vt 0.7523 0.6466
vt 0.8827 0.6466
vt 0.7523 0.8052
vt 0.8827 0.8846
vt 0.7523 0.8846
vt 0.8312 0.1230
vt 0.8620 0.0793
vt 0.7251 0.0793
vt 0.7558 0.0793
vt 0.8312 0.0793
vt 0.7558 0.0356
vt 0.8644 0.3617
vt 0.7275 0.2824
vt 0.8644 0.2824
vt 0.7275 0.4410
vt 0.8644 0.4410
vt 0.7523 0.7259
vt 0.8827 0.8052
vt 0.7523 0.5673
vt 0.8827 0.5673
vt 0.2608 0.9617
vt 0.1304 0.8148
vt 0.2608 0.8148
vt 0.1304 0.9617
vt 0.0000 0.8148
vt 0.1304 0.8148
vt 0.4988 0.0000
vt 0.2494 0.0000
vt 0.0000 0.0000
vt 0.2494 0.0000
vt 0.5847 0.8173
vt 0.6268 0.2824
vt 0.7275 0.5673
vt 0.9230 0.2824
vt 0.6434 0.8173
vt 0.3637 1.0000
vt 0.9230 0.5673
vt 0.9414 0.8521
vt 0.6119 0.2501
vt 0.8382 0.1587
vt 0.2262 0.8148
vt 0.2631 0.5501
vt 0.6392 0.5673
vt 0.2494 0.2824
vt 0.0000 0.2824
vt 0.8382 0.1587
vt 0.6268 0.2824
vt 0.5261 0.5673
vt 0.9414 0.5673
vt 0.6434 0.8173
vt 0.4769 0.8002
vt 0.9414 0.8521
vt 0.9230 0.5673
vt 0.6392 0.5673
vt 0.8406 0.5624
vt 0.0000 0.8148
vt 0.4893 0.5501
vt 0.6119 0.2501
vt 0.4971 0.5501
vt 0.5049 0.5501
vt 0.5183 0.6311
vt 0.5127 0.5501
vt 0.7523 0.7259
vt 0.7275 0.3617
vt 0.8827 0.7259
vt 0.1304 0.9617
vt 0.0000 0.9617
vn 0.0000 0.0000 -1.0000
vn 1.0000 0.0000 0.0000
vn 0.0000 -1.0000 0.0000
vn 0.0000 1.0000 0.0000
vn 0.0000 0.0000 1.0000
vn -1.0000 0.0000 0.0000
s off
f 32/1/1 5/2/1 31/3/1
f 5/4/2 1/5/2 3/6/2
f 1/7/3 20/8/3 3/9/3
f 32/10/4 61/11/4 57/12/4
f 6/13/5 34/14/5 33/15/5
f 8/16/4 11/17/4 7/18/4
f 6/19/2 8/20/2 2/21/2
f 2/21/2 7/22/2 4/23/2
f 5/4/2 10/24/2 6/19/2
f 4/23/2 9/25/2 5/4/2
f 13/26/2 12/27/2 14/28/2
f 14/28/2 18/29/2 13/26/2
f 7/30/1 13/31/1 9/32/1
f 10/33/5 12/34/5 8/35/5
f 16/36/3 17/37/3 15/38/3
f 9/39/6 15/40/6 10/41/6
f 13/31/1 16/42/1 9/32/1
f 10/33/5 17/43/5 14/44/5
f 22/45/6 25/46/6 21/47/6
f 31/48/3 21/49/3 33/50/3
f 33/50/3 19/51/3 1/7/3
f 3/9/3 22/52/3 31/48/3
f 24/53/3 25/54/3 26/55/3
f 21/56/5 23/57/5 19/58/5
f 20/59/1 26/60/1 22/61/1
f 19/62/2 24/63/2 20/64/2
f 29/65/1 35/66/1 31/3/1
f 27/67/6 35/68/6 29/69/6
f 50/70/3 27/71/3 29/72/3
f 32/10/4 58/73/4 4/74/4
f 34/14/5 28/75/5 36/76/5
f 41/77/4 38/78/4 37/79/4
f 38/80/6 36/81/6 28/82/6
f 37/83/6 28/82/6 30/84/6
f 40/85/6 35/68/6 36/81/6
f 39/86/6 30/84/6 35/68/6
f 42/87/6 43/88/6 44/89/6
f 48/90/6 44/89/6 43/88/6
f 43/91/1 37/92/1 39/93/1
f 42/94/5 40/95/5 38/96/5
f 47/97/3 46/98/3 45/99/3
f 45/100/2 39/101/2 40/102/2
f 46/103/1 43/91/1 39/93/1
f 47/104/5 40/95/5 44/105/5
f 55/106/2 52/107/2 51/108/2
f 51/109/3 31/48/3 33/50/3
f 49/110/3 33/50/3 27/71/3
f 52/111/3 29/72/3 31/48/3
f 55/112/3 54/113/3 56/114/3
f 53/115/5 51/116/5 49/117/5
f 56/118/1 50/119/1 52/120/1
f 54/121/6 49/122/6 50/123/6
f 61/124/1 63/125/1 57/126/1
f 60/127/5 68/128/5 62/129/5
f 34/130/4 62/131/4 28/132/4
f 34/130/4 59/133/4 60/134/4
f 28/132/4 61/11/4 30/135/4
f 4/74/4 59/133/4 2/136/4
f 65/137/3 70/138/3 71/139/3
f 67/140/3 74/141/3 73/142/3
f 59/143/5 66/144/5 60/127/5
f 57/126/1 64/145/1 58/146/1
f 62/147/6 67/148/6 61/149/6
f 58/150/2 65/151/2 59/152/2
f 73/153/1 75/154/1 69/155/1
f 72/156/5 80/157/5 74/158/5
f 68/159/3 72/160/3 74/141/3
f 67/140/3 69/161/3 63/162/3
f 65/137/3 72/160/3 66/163/3
f 64/164/3 69/161/3 70/138/3
f 75/165/4 77/166/4 76/167/4
f 80/168/4 75/165/4 79/169/4
f 71/170/5 78/171/5 72/156/5
f 69/155/1 76/172/1 70/173/1
f 74/174/6 79/175/6 73/176/6
f 70/177/2 77/178/2 71/179/2
f 3/180/1 31/3/1 5/2/1
f 32/1/1 4/181/1 5/2/1
f 5/4/2 6/19/2 1/5/2
f 1/7/3 19/51/3 20/8/3
f 32/10/4 30/135/4 61/11/4
f 33/15/5 1/182/5 6/13/5
f 6/13/5 2/183/5 34/14/5
f 8/16/4 12/184/4 11/17/4
f 6/19/2 10/24/2 8/20/2
f 2/21/2 8/20/2 7/22/2
f 5/4/2 9/25/2 10/24/2
f 4/23/2 7/22/2 9/25/2
f 13/26/2 11/185/2 12/27/2
f 14/28/2 17/186/2 18/29/2
f 7/30/1 11/187/1 13/31/1
f 10/33/5 14/44/5 12/34/5
f 16/36/3 18/188/3 17/37/3
f 9/39/6 16/189/6 15/40/6
f 13/31/1 18/190/1 16/42/1
f 10/33/5 15/191/5 17/43/5
f 22/45/6 26/192/6 25/46/6
f 31/48/3 22/52/3 21/49/3
f 33/50/3 21/49/3 19/51/3
f 3/9/3 20/8/3 22/52/3
f 24/53/3 23/193/3 25/54/3
f 21/56/5 25/194/5 23/57/5
f 20/59/1 24/195/1 26/60/1
f 19/62/2 23/196/2 24/63/2
f 32/1/1 31/3/1 35/66/1
f 35/66/1 30/197/1 32/1/1
f 27/67/6 36/81/6 35/68/6
f 50/70/3 49/110/3 27/71/3
f 32/10/4 57/12/4 58/73/4
f 36/76/5 27/198/5 33/15/5
f 33/15/5 34/14/5 36/76/5
f 41/77/4 42/199/4 38/78/4
f 38/80/6 40/85/6 36/81/6
f 37/83/6 38/80/6 28/82/6
f 40/85/6 39/86/6 35/68/6
f 39/86/6 37/83/6 30/84/6
f 42/87/6 41/200/6 43/88/6
f 48/90/6 47/201/6 44/89/6
f 43/91/1 41/202/1 37/92/1
f 42/94/5 44/105/5 40/95/5
f 47/97/3 48/203/3 46/98/3
f 45/100/2 46/204/2 39/101/2
f 46/103/1 48/205/1 43/91/1
f 47/104/5 45/206/5 40/95/5
f 55/106/2 56/207/2 52/107/2
f 51/109/3 52/111/3 31/48/3
f 49/110/3 51/109/3 33/50/3
f 52/111/3 50/70/3 29/72/3
f 55/112/3 53/208/3 54/113/3
f 53/115/5 55/209/5 51/116/5
f 56/118/1 54/210/1 50/119/1
f 54/121/6 53/211/6 49/122/6
f 61/124/1 67/212/1 63/125/1
f 60/127/5 66/144/5 68/128/5
f 34/130/4 60/134/4 62/131/4
f 34/130/4 2/136/4 59/133/4
f 28/132/4 62/131/4 61/11/4
f 4/74/4 58/73/4 59/133/4
f 65/137/3 64/164/3 70/138/3
f 67/140/3 68/159/3 74/141/3
f 59/143/5 65/213/5 66/144/5
f 57/126/1 63/125/1 64/145/1
f 62/147/6 68/214/6 67/148/6
f 58/150/2 64/215/2 65/151/2
f 73/153/1 79/216/1 75/154/1
f 72/156/5 78/171/5 80/157/5
f 68/159/3 66/163/3 72/160/3
f 67/140/3 73/142/3 69/161/3
f 65/137/3 71/139/3 72/160/3
f 64/164/3 63/162/3 69/161/3
f 75/165/4 78/217/4 77/166/4
f 80/168/4 78/217/4 75/165/4
f 71/170/5 77/218/5 78/171/5
f 69/155/1 75/154/1 76/172/1
f 74/174/6 80/219/6 79/175/6
f 70/177/2 76/220/2 77/178/2
